<svg width="30" height="40" viewBox="0 0 30 40" fill="none" xmlns="http://www.w3.org/2000/svg">
<path d="M4 1.2002H20.8701L28.7998 8.4834V36C28.7998 37.5463 27.5463 38.7997 26 38.7998H4C2.4536 38.7998 1.2002 37.5464 1.2002 36V4C1.2002 2.4536 2.4536 1.2002 4 1.2002Z" stroke="#D0D5DD" stroke-width="2.4"/>
<mask id="path-2-inside-1_4003_115" fill="white">
<path d="M20 1H29V10H22C20.8954 10 20 9.10457 20 8V1Z"/>
</mask>
<path d="M20 1H29H20ZM29 12.2H22C19.6804 12.2 17.8 10.3196 17.8 8L22.2 7.8H29V12.2ZM22 12.2C19.6804 12.2 17.8 10.3196 17.8 8V1H22.2V7.8L22 12.2ZM29 1V10V1Z" fill="#D0D5DD" mask="url(#path-2-inside-1_4003_115)"/>
</svg>
