<svg width="30" height="40" viewBox="0 0 30 40" fill="none" xmlns="http://www.w3.org/2000/svg">
<path d="M4 0.900391H20.9863L29.0996 8.35254V36C29.0996 37.712 27.712 39.0995 26 39.0996H4C2.28792 39.0996 0.900391 37.7121 0.900391 36V4C0.900391 2.28792 2.28792 0.900391 4 0.900391Z" stroke="#D0D5DD" stroke-width="1.8"/>
<mask id="path-2-inside-1_4002_251" fill="white">
<path d="M20 1H28.5V9.5H21C20.4477 9.5 20 9.05228 20 8.5V1Z"/>
</mask>
<path d="M20 1H28.5H20ZM28.5 11H21C19.6193 11 18.5 9.88071 18.5 8.5L21.5 8H28.5V11ZM21 11C19.6193 11 18.5 9.88071 18.5 8.5V1H21.5V8L21 11ZM28.5 1V9.5V1Z" fill="#D0D5DD" mask="url(#path-2-inside-1_4002_251)"/>
</svg>
